<mxfile host="Electron" agent="Mozilla/5.0 (Windows NT 10.0; Win64; x64) AppleWebKit/537.36 (KHTML, like Gecko) draw.io/24.7.17 Chrome/128.0.6613.36 Electron/32.0.1 Safari/537.36" version="24.7.17">
  <diagram name="Página-1" id="HOyEbVTvM7z6F77jx5zz">
    <mxGraphModel dx="1730" dy="532" grid="1" gridSize="10" guides="1" tooltips="1" connect="1" arrows="1" fold="1" page="1" pageScale="1" pageWidth="850" pageHeight="1100" math="0" shadow="0">
      <root>
        <mxCell id="0" />
        <mxCell id="1" parent="0" />
        <mxCell id="9YBEksHNRd8pihTOAbTB-1" value="&lt;p style=&quot;text-align:justify;text-indent:-18.0pt;&lt;br/&gt;line-height:150%;mso-list:l0 level1 lfo1&quot; class=&quot;MsoListParagraph&quot;&gt;&lt;span style=&quot;font-family: Arial, sans-serif; border: 1pt none windowtext; padding: 0cm;&quot; lang=&quot;ES-TRAD&quot;&gt;&amp;nbsp; &amp;nbsp; &amp;nbsp; Cantidad de reservas&lt;/span&gt;&lt;/p&gt;" style="rounded=1;whiteSpace=wrap;html=1;fillColor=#dae8fc;gradientColor=#7ea6e0;strokeColor=#6c8ebf;" vertex="1" parent="1">
          <mxGeometry x="80" y="120" width="130" height="35" as="geometry" />
        </mxCell>
        <mxCell id="9YBEksHNRd8pihTOAbTB-2" value="&lt;p style=&quot;text-align:justify;text-indent:-18.0pt;&lt;br/&gt;line-height:150%;mso-list:l0 level1 lfo1&quot; class=&quot;MsoListParagraph&quot;&gt;&lt;span style=&quot;font-family: Arial, sans-serif; border: 1pt none windowtext; padding: 0cm;&quot; lang=&quot;ES-TRAD&quot;&gt;&amp;nbsp; &amp;nbsp; &amp;nbsp;&amp;nbsp;&lt;/span&gt;&lt;span style=&quot;text-indent: -18pt; background-color: initial; font-family: Arial, sans-serif; border: 1pt none windowtext; padding: 0cm;&quot; lang=&quot;ES-TRAD&quot;&gt;Estado de reservas&lt;/span&gt;&lt;/p&gt;&lt;p style=&quot;text-align:justify;text-indent:-18.0pt;&lt;br/&gt;line-height:150%;mso-list:l0 level1 lfo1&quot; class=&quot;MsoListParagraph&quot;&gt;&lt;span style=&quot;font-family: Arial, sans-serif; border: 1pt none windowtext; padding: 0cm;&quot; lang=&quot;ES-TRAD&quot;&gt;&lt;/span&gt;&lt;/p&gt;" style="rounded=1;whiteSpace=wrap;html=1;fillColor=#dae8fc;gradientColor=#7ea6e0;strokeColor=#6c8ebf;" vertex="1" parent="1">
          <mxGeometry x="80" y="175" width="130" height="30" as="geometry" />
        </mxCell>
        <mxCell id="9YBEksHNRd8pihTOAbTB-3" value="&lt;p style=&quot;text-align:justify;text-indent:-18.0pt;&lt;br/&gt;line-height:150%;mso-list:l0 level1 lfo1&quot; class=&quot;MsoListParagraph&quot;&gt;&lt;span style=&quot;font-family: Arial, sans-serif; border: 1pt none windowtext; padding: 0cm;&quot; lang=&quot;ES-TRAD&quot;&gt;&amp;nbsp; &amp;nbsp; &amp;nbsp;&lt;/span&gt;&lt;span style=&quot;text-indent: -18pt; background-color: initial; font-family: Arial, sans-serif; border: 1pt none windowtext; padding: 0cm;&quot; lang=&quot;ES-TRAD&quot;&gt;Promedio de reservas&lt;/span&gt;&lt;/p&gt;&lt;p style=&quot;text-align:justify;text-indent:-18.0pt;&lt;br/&gt;line-height:150%;mso-list:l0 level1 lfo1&quot; class=&quot;MsoListParagraph&quot;&gt;&lt;span style=&quot;font-family: Arial, sans-serif; border: 1pt none windowtext; padding: 0cm;&quot; lang=&quot;ES-TRAD&quot;&gt;&lt;/span&gt;&lt;/p&gt;&lt;p style=&quot;text-align:justify;text-indent:-18.0pt;&lt;br/&gt;line-height:150%;mso-list:l0 level1 lfo1&quot; class=&quot;MsoListParagraph&quot;&gt;&lt;span style=&quot;font-family: Arial, sans-serif; border: 1pt none windowtext; padding: 0cm;&quot; lang=&quot;ES-TRAD&quot;&gt;&lt;/span&gt;&lt;/p&gt;" style="rounded=1;whiteSpace=wrap;html=1;fillColor=#dae8fc;gradientColor=#7ea6e0;strokeColor=#6c8ebf;" vertex="1" parent="1">
          <mxGeometry x="80" y="225" width="130" height="30" as="geometry" />
        </mxCell>
        <mxCell id="9YBEksHNRd8pihTOAbTB-4" value="&lt;p style=&quot;text-align:justify;text-indent:-18.0pt;&lt;br/&gt;line-height:150%;mso-list:l0 level1 lfo1&quot; class=&quot;MsoListParagraph&quot;&gt;&lt;span style=&quot;border: 1pt none windowtext; padding: 0cm;&quot; lang=&quot;ES-TRAD&quot;&gt;&lt;span style=&quot;font-variant-numeric: normal; font-variant-east-asian: normal; font-variant-alternates: normal; font-size-adjust: none; font-kerning: auto; font-optical-sizing: auto; font-feature-settings: normal; font-variation-settings: normal; font-variant-position: normal; font-stretch: normal; line-height: normal;&quot;&gt;&lt;font face=&quot;Symbol&quot;&gt;&amp;nbsp; &amp;nbsp; &amp;nbsp; &amp;nbsp;&amp;nbsp;&lt;/font&gt;&lt;/span&gt;&lt;span style=&quot;font-family: &amp;quot;Times New Roman&amp;quot;; font-variant-numeric: normal; font-variant-east-asian: normal; font-variant-alternates: normal; font-size-adjust: none; font-kerning: auto; font-optical-sizing: auto; font-feature-settings: normal; font-variation-settings: normal; font-variant-position: normal; font-stretch: normal; font-size: 7pt; line-height: normal;&quot;&gt;&amp;nbsp;&lt;/span&gt;&lt;/span&gt;&lt;span style=&quot;font-family: Arial, sans-serif; border: 1pt none windowtext; padding: 0cm;&quot; lang=&quot;ES-TRAD&quot;&gt;Tipo de documento&lt;/span&gt;&lt;/p&gt;" style="rounded=1;whiteSpace=wrap;html=1;fillColor=#dae8fc;gradientColor=#7ea6e0;strokeColor=#6c8ebf;" vertex="1" parent="1">
          <mxGeometry x="80" y="275" width="130" height="30" as="geometry" />
        </mxCell>
        <mxCell id="9YBEksHNRd8pihTOAbTB-5" value="&lt;p class=&quot;MsoListParagraph&quot; style=&quot;text-indent: -18pt;&quot;&gt;&lt;span lang=&quot;ES-TRAD&quot; style=&quot;border: 1pt none windowtext; padding: 0cm;&quot;&gt;&lt;span style=&quot;font-variant-numeric: normal; font-variant-east-asian: normal; font-variant-alternates: normal; font-size-adjust: none; font-kerning: auto; font-optical-sizing: auto; font-feature-settings: normal; font-variation-settings: normal; font-variant-position: normal; font-stretch: normal; line-height: normal;&quot;&gt;&lt;font face=&quot;Symbol&quot;&gt;&amp;nbsp; &amp;nbsp; &amp;nbsp; &amp;nbsp;&amp;nbsp;&lt;/font&gt;&lt;/span&gt;&lt;/span&gt;&lt;span lang=&quot;ES-TRAD&quot; style=&quot;text-indent: -18pt; background-color: initial; font-family: Arial, sans-serif; border: 1pt none windowtext; padding: 0cm;&quot;&gt;Cantidad de reservas canceladas&lt;/span&gt;&lt;/p&gt;&lt;p class=&quot;MsoListParagraph&quot; style=&quot;text-indent: -18pt;&quot;&gt;&lt;span lang=&quot;ES-TRAD&quot; style=&quot;font-family: Arial, sans-serif; border: 1pt none windowtext; padding: 0cm;&quot;&gt;&lt;/span&gt;&lt;/p&gt;" style="rounded=1;whiteSpace=wrap;html=1;arcSize=23;align=center;fillColor=#dae8fc;gradientColor=#7ea6e0;strokeColor=#6c8ebf;" vertex="1" parent="1">
          <mxGeometry x="80" y="325" width="130" height="40" as="geometry" />
        </mxCell>
        <mxCell id="9YBEksHNRd8pihTOAbTB-6" value="Cancelación" style="rounded=1;whiteSpace=wrap;html=1;fillColor=#f5f5f5;gradientColor=#b3b3b3;strokeColor=#666666;" vertex="1" parent="1">
          <mxGeometry x="-280" y="85" width="80" height="30" as="geometry" />
        </mxCell>
        <mxCell id="9YBEksHNRd8pihTOAbTB-7" value="Temporada" style="rounded=1;whiteSpace=wrap;html=1;fillColor=#f5f5f5;gradientColor=#b3b3b3;strokeColor=#666666;" vertex="1" parent="1">
          <mxGeometry x="-280" y="125" width="80" height="30" as="geometry" />
        </mxCell>
        <mxCell id="9YBEksHNRd8pihTOAbTB-8" value="Cliente" style="rounded=1;whiteSpace=wrap;html=1;fillColor=#f5f5f5;gradientColor=#b3b3b3;strokeColor=#666666;" vertex="1" parent="1">
          <mxGeometry x="-280" y="165" width="80" height="30" as="geometry" />
        </mxCell>
        <mxCell id="9YBEksHNRd8pihTOAbTB-9" value="Año" style="rounded=1;whiteSpace=wrap;html=1;fillColor=#f5f5f5;gradientColor=#b3b3b3;strokeColor=#666666;" vertex="1" parent="1">
          <mxGeometry x="-280" y="205" width="80" height="30" as="geometry" />
        </mxCell>
        <mxCell id="9YBEksHNRd8pihTOAbTB-10" value="Vuelo" style="rounded=1;whiteSpace=wrap;html=1;fillColor=#f5f5f5;gradientColor=#b3b3b3;strokeColor=#666666;" vertex="1" parent="1">
          <mxGeometry x="-280" y="245" width="80" height="30" as="geometry" />
        </mxCell>
        <mxCell id="9YBEksHNRd8pihTOAbTB-11" value="Rutas nacionales" style="rounded=1;whiteSpace=wrap;html=1;fillColor=#f5f5f5;gradientColor=#b3b3b3;strokeColor=#666666;" vertex="1" parent="1">
          <mxGeometry x="-280" y="285" width="80" height="50" as="geometry" />
        </mxCell>
        <mxCell id="9YBEksHNRd8pihTOAbTB-12" value="Rutas internacionales" style="rounded=1;whiteSpace=wrap;html=1;fillColor=#f5f5f5;gradientColor=#b3b3b3;strokeColor=#666666;" vertex="1" parent="1">
          <mxGeometry x="-280" y="355" width="90" height="40" as="geometry" />
        </mxCell>
        <mxCell id="9YBEksHNRd8pihTOAbTB-14" value="&lt;b&gt;&lt;font style=&quot;font-size: 16px;&quot;&gt;Reservas&lt;/font&gt;&lt;/b&gt;" style="ellipse;whiteSpace=wrap;html=1;fillColor=#f8cecc;gradientColor=#ea6b66;strokeColor=#b85450;" vertex="1" parent="1">
          <mxGeometry x="-120" y="210" width="100" height="60" as="geometry" />
        </mxCell>
        <mxCell id="9YBEksHNRd8pihTOAbTB-15" value="" style="endArrow=none;html=1;rounded=0;exitX=1;exitY=0.75;exitDx=0;exitDy=0;entryX=0;entryY=0;entryDx=0;entryDy=0;" edge="1" parent="1" source="9YBEksHNRd8pihTOAbTB-6" target="9YBEksHNRd8pihTOAbTB-14">
          <mxGeometry width="50" height="50" relative="1" as="geometry">
            <mxPoint x="40" y="250" as="sourcePoint" />
            <mxPoint x="90" y="200" as="targetPoint" />
          </mxGeometry>
        </mxCell>
        <mxCell id="9YBEksHNRd8pihTOAbTB-16" value="" style="endArrow=none;html=1;rounded=0;exitX=1;exitY=0.5;exitDx=0;exitDy=0;entryX=0.08;entryY=0.2;entryDx=0;entryDy=0;entryPerimeter=0;" edge="1" parent="1" source="9YBEksHNRd8pihTOAbTB-7" target="9YBEksHNRd8pihTOAbTB-14">
          <mxGeometry width="50" height="50" relative="1" as="geometry">
            <mxPoint x="-230" y="123" as="sourcePoint" />
            <mxPoint x="-135" y="224" as="targetPoint" />
          </mxGeometry>
        </mxCell>
        <mxCell id="9YBEksHNRd8pihTOAbTB-17" value="" style="endArrow=none;html=1;rounded=0;exitX=1;exitY=0.25;exitDx=0;exitDy=0;entryX=0;entryY=0.367;entryDx=0;entryDy=0;entryPerimeter=0;" edge="1" parent="1" source="9YBEksHNRd8pihTOAbTB-8" target="9YBEksHNRd8pihTOAbTB-14">
          <mxGeometry width="50" height="50" relative="1" as="geometry">
            <mxPoint x="-230" y="155" as="sourcePoint" />
            <mxPoint x="-102" y="232" as="targetPoint" />
          </mxGeometry>
        </mxCell>
        <mxCell id="9YBEksHNRd8pihTOAbTB-18" value="" style="endArrow=none;html=1;rounded=0;exitX=1;exitY=0.5;exitDx=0;exitDy=0;" edge="1" parent="1" source="9YBEksHNRd8pihTOAbTB-9">
          <mxGeometry width="50" height="50" relative="1" as="geometry">
            <mxPoint x="-230" y="188" as="sourcePoint" />
            <mxPoint x="-120" y="240" as="targetPoint" />
          </mxGeometry>
        </mxCell>
        <mxCell id="9YBEksHNRd8pihTOAbTB-19" value="" style="endArrow=none;html=1;rounded=0;exitX=1;exitY=0.5;exitDx=0;exitDy=0;" edge="1" parent="1" source="9YBEksHNRd8pihTOAbTB-10">
          <mxGeometry width="50" height="50" relative="1" as="geometry">
            <mxPoint x="-230" y="235" as="sourcePoint" />
            <mxPoint x="-120" y="250" as="targetPoint" />
          </mxGeometry>
        </mxCell>
        <mxCell id="9YBEksHNRd8pihTOAbTB-20" value="" style="endArrow=none;html=1;rounded=0;exitX=1;exitY=0.5;exitDx=0;exitDy=0;entryX=0.07;entryY=0.817;entryDx=0;entryDy=0;entryPerimeter=0;" edge="1" parent="1" source="9YBEksHNRd8pihTOAbTB-11" target="9YBEksHNRd8pihTOAbTB-14">
          <mxGeometry width="50" height="50" relative="1" as="geometry">
            <mxPoint x="-230" y="275" as="sourcePoint" />
            <mxPoint x="-110" y="260" as="targetPoint" />
          </mxGeometry>
        </mxCell>
        <mxCell id="9YBEksHNRd8pihTOAbTB-21" value="" style="endArrow=none;html=1;rounded=0;entryX=0;entryY=1;entryDx=0;entryDy=0;" edge="1" parent="1" source="9YBEksHNRd8pihTOAbTB-12" target="9YBEksHNRd8pihTOAbTB-14">
          <mxGeometry width="50" height="50" relative="1" as="geometry">
            <mxPoint x="-230" y="325" as="sourcePoint" />
            <mxPoint x="-103" y="269" as="targetPoint" />
          </mxGeometry>
        </mxCell>
        <mxCell id="9YBEksHNRd8pihTOAbTB-22" value="" style="endArrow=classic;html=1;rounded=0;exitX=0.94;exitY=0.217;exitDx=0;exitDy=0;exitPerimeter=0;entryX=0;entryY=0.5;entryDx=0;entryDy=0;" edge="1" parent="1" source="9YBEksHNRd8pihTOAbTB-14" target="9YBEksHNRd8pihTOAbTB-1">
          <mxGeometry width="50" height="50" relative="1" as="geometry">
            <mxPoint x="40" y="250" as="sourcePoint" />
            <mxPoint x="90" y="200" as="targetPoint" />
          </mxGeometry>
        </mxCell>
        <mxCell id="9YBEksHNRd8pihTOAbTB-23" value="" style="endArrow=classic;html=1;rounded=0;exitX=0.96;exitY=0.383;exitDx=0;exitDy=0;exitPerimeter=0;entryX=0;entryY=0.5;entryDx=0;entryDy=0;" edge="1" parent="1" source="9YBEksHNRd8pihTOAbTB-14" target="9YBEksHNRd8pihTOAbTB-2">
          <mxGeometry width="50" height="50" relative="1" as="geometry">
            <mxPoint x="-16" y="233" as="sourcePoint" />
            <mxPoint x="130" y="123" as="targetPoint" />
          </mxGeometry>
        </mxCell>
        <mxCell id="9YBEksHNRd8pihTOAbTB-24" value="" style="endArrow=classic;html=1;rounded=0;exitX=1;exitY=0.5;exitDx=0;exitDy=0;entryX=0;entryY=0.5;entryDx=0;entryDy=0;" edge="1" parent="1" source="9YBEksHNRd8pihTOAbTB-14" target="9YBEksHNRd8pihTOAbTB-3">
          <mxGeometry width="50" height="50" relative="1" as="geometry">
            <mxPoint x="-14" y="243" as="sourcePoint" />
            <mxPoint x="130" y="175" as="targetPoint" />
          </mxGeometry>
        </mxCell>
        <mxCell id="9YBEksHNRd8pihTOAbTB-25" value="" style="endArrow=classic;html=1;rounded=0;exitX=1;exitY=0.683;exitDx=0;exitDy=0;entryX=0;entryY=0.5;entryDx=0;entryDy=0;exitPerimeter=0;" edge="1" parent="1" source="9YBEksHNRd8pihTOAbTB-14" target="9YBEksHNRd8pihTOAbTB-4">
          <mxGeometry width="50" height="50" relative="1" as="geometry">
            <mxPoint x="-10" y="250" as="sourcePoint" />
            <mxPoint x="130" y="225" as="targetPoint" />
          </mxGeometry>
        </mxCell>
        <mxCell id="9YBEksHNRd8pihTOAbTB-26" value="" style="endArrow=classic;html=1;rounded=0;exitX=0.95;exitY=0.767;exitDx=0;exitDy=0;entryX=0;entryY=0.5;entryDx=0;entryDy=0;exitPerimeter=0;" edge="1" parent="1" source="9YBEksHNRd8pihTOAbTB-14" target="9YBEksHNRd8pihTOAbTB-5">
          <mxGeometry width="50" height="50" relative="1" as="geometry">
            <mxPoint x="-10" y="261" as="sourcePoint" />
            <mxPoint x="130" y="275" as="targetPoint" />
          </mxGeometry>
        </mxCell>
      </root>
    </mxGraphModel>
  </diagram>
</mxfile>
